<svg width="186" height="102" viewBox="0 0 186 102" fill="none" xmlns="http://www.w3.org/2000/svg">
<g clip-path="url(#clip0_529_2440)">
<path d="M104.525 53.9694C104.359 53.693 104.133 53.4569 103.863 53.2785C103.5 53.0401 103.074 52.9135 102.638 52.9146C102.092 52.9157 101.568 53.1233 101.171 53.495C100.524 54.0984 98.9353 54.4985 97.1214 54.5039C95.3075 54.5094 93.7129 54.1005 93.0638 53.4993C92.6658 53.129 92.1405 52.923 91.5948 52.9233C91.1591 52.9241 90.7333 53.0523 90.3705 53.2917C90.1006 53.4708 89.8745 53.7076 89.7088 53.9846C89.5432 54.2617 89.4421 54.572 89.413 54.8928C89.384 55.2137 89.4277 55.5369 89.5409 55.8388C89.6541 56.1407 89.8341 56.4137 90.0675 56.6376C91.5783 58.0893 94.1658 58.9331 97.1313 58.9331C100.097 58.9331 102.671 58.0849 104.177 56.6278C104.528 56.289 104.754 55.8428 104.817 55.3612C104.881 54.8796 104.779 54.3907 104.528 53.9738L104.525 53.9694Z" fill="#4F80FF"/>
<path d="M129.702 15.0401C129.103 11.7815 125.12 9.81834 117.864 9.20292C117.213 9.14827 115.33 9.01054 114.284 8.97119C112.036 5.6915 108.877 3.12944 105.19 1.59585C101.502 0.0622618 97.4458 -0.376932 93.5119 0.331571C89.578 1.04007 85.936 2.86581 83.0277 5.58726C80.1194 8.30871 78.0699 11.8089 77.1278 15.6631C75.8759 16.1572 74.5998 16.7179 73.5 17.2404C66.9321 20.3601 63.9126 23.5935 64.5066 26.8521C65.1006 30.1106 69.0898 32.0738 76.3443 32.6881C77.7251 32.805 79.1919 32.8695 80.7314 32.8837H80.7666C80.8922 33.0466 81.0179 33.2117 81.1479 33.3669C81.5233 33.826 81.9182 34.269 82.3326 34.6961C82.7636 35.2641 83.1202 35.8841 83.3938 36.5412C84.3371 38.5656 84.9906 41.2962 85.4237 43.2955C85.4443 43.4307 85.4756 43.5641 85.5173 43.6944C85.8077 44.7482 86.3787 45.705 87.1703 46.4644C89.3126 48.8298 93.26 50.0114 97.2073 50.0114C101.155 50.0114 105.103 48.8298 107.245 46.4644C108.037 45.705 108.608 44.7482 108.898 43.6944C108.94 43.5641 108.971 43.4307 108.992 43.2955C109.425 41.2962 110.079 38.5656 111.021 36.5412C111.295 35.8841 111.652 35.2641 112.083 34.6961C112.497 34.2698 112.892 33.8267 113.268 33.3669C114.023 32.4424 114.696 31.455 115.279 30.4155C116.022 29.0919 116.613 27.6903 117.042 26.2366C118.346 25.7272 119.577 25.1982 120.724 24.6538C127.277 21.5309 130.303 18.2975 129.702 15.0401ZM97.2018 3.86315C99.6388 3.86426 102.046 4.39234 104.256 5.41063C106.467 6.42892 108.426 7.91294 109.999 9.75928C111.572 11.6056 112.72 13.7699 113.364 16.1014C114.007 18.4329 114.131 20.8755 113.725 23.259L113.539 23.3257C113.294 23.4121 113.049 23.4995 112.798 23.5848C111.58 24.0031 110.312 24.4039 108.993 24.7872C105.465 25.8036 101.887 26.6377 98.2719 27.286C94.8028 27.9145 91.3998 28.3682 88.1765 28.6414C86.691 28.7675 85.2481 28.8542 83.8478 28.9016C83.5172 28.9125 83.18 28.9234 82.8505 28.93H82.7833H82.7712C81.2695 26.4056 80.4674 23.5323 80.4463 20.6013C80.4252 17.6703 81.1858 14.7859 82.651 12.2405C84.1161 9.69509 86.2338 7.57924 88.7892 6.10744C91.3446 4.63565 94.2469 3.86025 97.2018 3.85987V3.86315ZM76.6826 28.7628C70.226 28.2162 68.6777 26.9329 68.6777 25.9054C68.6777 24.6527 69.3708 23.5706 75.2147 20.7941C75.6291 20.5973 76.1074 20.3798 76.5548 20.1842C76.5548 20.2836 76.5548 20.3831 76.5548 20.4837C76.5512 23.3759 77.1673 26.236 78.3621 28.8743H78.2915C77.7416 28.8426 77.2039 28.8076 76.6826 28.7628ZM110.589 30.4811C110.276 30.8779 109.913 31.4594 108.722 32.8859C107.839 33.9463 107.154 35.154 106.698 36.4527C106.376 37.3173 106.097 38.2016 105.854 39.0849C105.532 40.2468 105.27 41.3902 105.044 42.433V42.444L104.963 42.6178C104.743 43.2381 104.328 43.7719 103.779 44.1404C102.52 45.2095 99.8643 45.7418 97.2096 45.7418C94.5548 45.7418 91.9001 45.2095 90.6416 44.1404C90.092 43.7723 89.6766 43.2384 89.457 42.6178L89.3765 42.444V42.433C89.1561 41.3902 88.8883 40.2468 88.5666 39.0849C88.3219 38.2104 88.0442 37.3173 87.7224 36.4527C87.2664 35.154 86.5809 33.9463 85.6981 32.8859L85.5978 32.7668L85.8623 32.7537L85.9592 32.7482C87.4734 32.6618 89.0316 32.5296 90.6229 32.3667C93.3404 32.0803 96.1516 31.6792 98.9981 31.1643C100.954 30.8101 102.876 30.4111 104.744 29.975C106.217 29.6303 107.654 29.2627 109.054 28.8721C110.009 28.6068 110.941 28.3321 111.85 28.0479L112.123 27.9626L112.195 27.9397C111.738 28.833 111.2 29.6836 110.589 30.4811ZM118.994 21.1002C118.613 21.2816 118.221 21.4605 117.819 21.6369C117.841 21.2565 117.852 20.8732 117.852 20.4869C117.854 17.9835 117.393 15.5011 116.49 13.1632C116.835 13.1873 117.193 13.2321 117.47 13.255C123.928 13.8016 125.714 14.9023 125.769 15.8533C125.842 17.1191 124.838 18.3215 118.994 21.1002Z" fill="#4F80FF"/>
<path d="M168.586 79.2581C169.29 77.9218 170.353 76.8047 171.657 76.0303C172.961 75.256 174.455 74.8545 175.975 74.8704C177.395 74.8704 178.634 75.1466 179.693 75.6989C180.68 76.1947 181.545 76.8992 182.228 77.7627V75.5142C182.228 75.4202 182.247 75.3272 182.283 75.2404C182.319 75.1536 182.372 75.0747 182.439 75.0083C182.506 74.9419 182.586 74.8893 182.674 74.8534C182.761 74.8175 182.855 74.7992 182.95 74.7993H185.276C185.467 74.7993 185.65 74.8746 185.786 75.0087C185.921 75.1428 185.997 75.3246 185.997 75.5142V92.7119C185.996 92.9021 185.92 93.0845 185.784 93.219C185.649 93.3534 185.465 93.4289 185.273 93.4289H182.952C182.76 93.4289 182.576 93.3534 182.44 93.219C182.305 93.0845 182.228 92.9021 182.228 92.7119V90.4022C181.595 91.2468 180.732 91.9511 179.64 92.5151C178.549 93.0792 177.303 93.3608 175.905 93.3601C174.4 93.3729 172.923 92.9612 171.645 92.173C170.34 91.3646 169.281 90.2189 168.582 88.8587C167.828 87.4399 167.451 85.8312 167.451 84.0327C167.451 82.2342 167.83 80.6426 168.586 79.2581ZM181.466 80.8824C180.998 80.0207 180.301 79.3025 179.451 78.8055C178.636 78.3326 177.708 78.0853 176.764 78.0895C175.822 78.0849 174.896 78.3262 174.077 78.7891C173.228 79.2741 172.531 79.9827 172.063 80.8365C171.549 81.7357 171.292 82.803 171.292 84.0382C171.292 85.2734 171.549 86.3566 172.063 87.2879C172.529 88.17 173.232 88.9067 174.094 89.4162C174.901 89.8945 175.824 90.1471 176.764 90.1475C177.708 90.152 178.636 89.9051 179.451 89.4326C180.305 88.9315 181.002 88.2059 181.466 87.336C181.981 86.4156 182.238 85.3379 182.238 84.1027C182.238 82.8675 181.981 81.794 181.466 80.8824Z" fill="white"/>
<path d="M111.716 79.3479C112.419 78.0122 113.481 76.8955 114.784 76.1211C116.087 75.3467 117.581 74.945 119.1 74.9602C120.519 74.9602 121.759 75.2364 122.819 75.7888C123.806 76.2845 124.671 76.989 125.354 77.8525V75.604C125.354 75.4144 125.43 75.2326 125.565 75.0985C125.7 74.9645 125.883 74.8892 126.074 74.8892H128.401C128.592 74.8892 128.775 74.9645 128.91 75.0985C129.045 75.2326 129.121 75.4144 129.121 75.604V92.8072C129.121 92.9974 129.045 93.1798 128.91 93.3142C128.774 93.4487 128.59 93.5243 128.398 93.5243H126.077C125.885 93.5243 125.701 93.4487 125.565 93.3142C125.43 93.1798 125.354 92.9974 125.354 92.8072V90.5007C124.72 91.3453 123.857 92.0497 122.765 92.6137C121.673 93.1777 120.428 93.4594 119.03 93.4587C117.526 93.4719 116.049 93.0605 114.771 92.2727C113.465 91.4639 112.406 90.3178 111.708 88.9573C110.954 87.5385 110.577 85.9298 110.577 84.1313C110.577 82.3328 110.957 80.7383 111.716 79.3479ZM124.592 80.9733C124.125 80.1115 123.428 79.3932 122.578 78.8964C121.763 78.424 120.835 78.1771 119.891 78.1816C118.93 78.1731 117.984 78.4242 117.156 78.9079C116.328 79.3916 115.648 80.0897 115.189 80.9274C114.675 81.8274 114.417 82.8946 114.417 84.1291C114.417 85.3636 114.675 86.4468 115.189 87.3789C115.655 88.261 116.358 88.9977 117.221 89.5071C118.028 89.9857 118.951 90.2384 119.891 90.2384C120.835 90.2428 121.763 89.9959 122.578 89.5235C123.431 89.0224 124.129 88.2968 124.592 87.427C125.106 86.5066 125.364 85.4288 125.364 84.1936C125.364 82.9584 125.106 81.885 124.592 80.9733Z" fill="white"/>
<path d="M57.9399 79.3479C58.6432 78.0125 59.705 76.8959 61.008 76.1216C62.311 75.3473 63.8044 74.9453 65.3233 74.9602C66.7426 74.9602 67.9824 75.2364 69.0425 75.7888C70.0294 76.2845 70.8946 76.989 71.5771 77.8525V75.604C71.5771 75.4144 71.653 75.2326 71.7882 75.0985C71.9234 74.9645 72.1067 74.8892 72.2978 74.8892H74.6241C74.8153 74.8892 74.9986 74.9645 75.1338 75.0985C75.2689 75.2326 75.3449 75.4144 75.3449 75.604V92.8072C75.3449 92.9974 75.2687 93.1798 75.1331 93.3142C74.9975 93.4487 74.8137 93.5243 74.6219 93.5243H72.3C72.1083 93.5243 71.9244 93.4487 71.7889 93.3142C71.6533 93.1798 71.5771 92.9974 71.5771 92.8072V90.5007C70.9438 91.3453 70.081 92.0497 68.9885 92.6137C67.8961 93.1777 66.6512 93.4594 65.2538 93.4587C63.7492 93.4715 62.2718 93.0602 60.9935 92.2727C59.6883 91.4633 58.6294 90.3174 57.93 88.9573C57.1777 87.5385 56.8012 85.9298 56.8004 84.1313C56.7997 82.3328 57.1795 80.7383 57.9399 79.3479ZM70.8167 80.9733C70.3492 80.1115 69.6525 79.3932 68.8023 78.8964C67.9873 78.424 67.0595 78.1771 66.1156 78.1816C65.1544 78.1731 64.2091 78.4242 63.3808 78.9079C62.5524 79.3916 61.8724 80.0897 61.4134 80.9274C60.8991 81.8274 60.642 82.8946 60.642 84.1291C60.642 85.3636 60.8991 86.4468 61.4134 87.3789C61.8793 88.2607 62.5823 88.9973 63.4444 89.5071C64.2519 89.9855 65.175 90.2382 66.1156 90.2384C67.0595 90.2428 67.9873 89.9959 68.8023 89.5235C69.6559 89.0224 70.3531 88.2968 70.8167 87.427C71.331 86.5066 71.5881 85.4288 71.5881 84.1936C71.5881 82.9584 71.331 81.885 70.8167 80.9733Z" fill="white"/>
<path d="M1.13076 79.3479C1.8345 78.0117 2.89718 76.8945 4.20123 76.1202C5.50528 75.3458 6.99988 74.9443 8.51967 74.9602C9.93904 74.9602 11.1784 75.2364 12.2378 75.7888C13.2248 76.2843 14.0901 76.9888 14.7724 77.8525V75.604C14.7724 75.4144 14.8483 75.2326 14.9835 75.0985C15.1187 74.9645 15.302 74.8892 15.4931 74.8892H17.8195C18.0106 74.8892 18.1939 74.9645 18.3291 75.0985C18.4642 75.2326 18.5402 75.4144 18.5402 75.604V92.8072C18.5402 92.9974 18.464 93.1798 18.3284 93.3142C18.1928 93.4487 18.009 93.5243 17.8172 93.5243H15.5052C15.3135 93.5243 15.1296 93.4487 14.9941 93.3142C14.8585 93.1798 14.7823 92.9974 14.7823 92.8072V90.5007C14.1491 91.3453 13.2862 92.0497 12.1937 92.6137C11.1013 93.1777 9.85603 93.4594 8.45796 93.4587C6.95364 93.4713 5.47663 93.06 4.19873 92.2727C2.89328 91.4636 1.83429 90.3176 1.13516 88.9573C0.381395 87.5385 0.0045166 85.9298 0.0045166 84.1313C0.0045166 82.3328 0.379928 80.7383 1.13076 79.3479ZM14.0076 80.9733C13.5398 80.1113 12.8426 79.393 11.9921 78.8964C11.1772 78.4239 10.2493 78.177 9.3054 78.1816C8.36357 78.1766 7.43699 78.4175 6.61872 78.8801C5.76965 79.3651 5.07244 80.0737 4.60426 80.9274C4.09 81.8274 3.83286 82.8946 3.83286 84.1291C3.83286 85.3636 4.09 86.4468 4.60426 87.3789C5.06983 88.2609 5.77287 88.9976 6.63525 89.5071C7.44247 89.9854 8.36513 90.2381 9.3054 90.2384C10.2493 90.243 11.1772 89.9961 11.9921 89.5235C12.8463 89.0228 13.5439 88.2971 14.0076 87.427C14.5219 86.5066 14.779 85.4288 14.779 84.1936C14.779 82.9584 14.5219 81.885 14.0076 80.9733Z" fill="white"/>
<path d="M49.3774 75.838C50.5028 76.4235 51.4266 77.3285 52.031 78.4374C52.6753 79.5866 52.9975 80.9734 52.9975 82.5977V92.8072C52.9972 92.9975 52.9208 93.1799 52.785 93.3143C52.6493 93.4487 52.4653 93.5243 52.2734 93.5243H50.0187C49.827 93.5243 49.6432 93.4487 49.5076 93.3142C49.372 93.1798 49.2958 92.9974 49.2958 92.8072V83.1562C49.2958 81.553 48.8918 80.3233 48.0836 79.467C47.2755 78.6108 46.1735 78.183 44.7776 78.1838C43.3818 78.1838 42.2732 78.6115 41.4518 79.467C40.6304 80.3226 40.2209 81.5523 40.2231 83.1562V92.8072C40.2228 92.9975 40.1464 93.1799 40.0106 93.3143C39.8749 93.4487 39.6909 93.5243 39.4991 93.5243H37.2444C37.0525 93.5243 36.8685 93.4487 36.7328 93.3143C36.5971 93.1799 36.5206 92.9975 36.5203 92.8072V83.1562C36.5203 81.553 36.1163 80.3233 35.3081 79.467C34.5 78.6108 33.398 78.183 32.0021 78.1838C30.6063 78.1838 29.4977 78.6115 28.6763 79.467C27.855 80.3226 27.4454 81.5523 27.4476 83.1562V92.8072C27.4473 92.9975 27.3709 93.1799 27.2351 93.3143C27.0994 93.4487 26.9154 93.5243 26.7236 93.5243H24.4314C24.2396 93.5243 24.0556 93.4487 23.9198 93.3143C23.7841 93.1799 23.7077 92.9975 23.7074 92.8072V75.6117C23.7074 75.4212 23.7837 75.2386 23.9195 75.1039C24.0552 74.9692 24.2394 74.8936 24.4314 74.8936H26.7181C26.9101 74.8936 27.0942 74.9692 27.23 75.1039C27.3658 75.2386 27.4421 75.4212 27.4421 75.6117V77.3005C28.0696 76.5522 28.8668 75.9619 29.7684 75.5778C30.7182 75.1642 31.7451 74.9538 32.7824 74.9602C34.2245 74.9602 35.5135 75.2637 36.6493 75.8708C37.7717 76.4646 38.6859 77.3825 39.271 78.5029C39.8161 77.42 40.6679 76.5587 41.8265 75.9189C42.9669 75.2845 44.2537 74.9542 45.5612 74.9602C46.9761 74.9602 48.2482 75.2528 49.3774 75.838Z" fill="white"/>
<path d="M84.27 69.1129V92.7981C84.27 92.9892 84.1934 93.1724 84.0572 93.3075C83.9211 93.4426 83.7363 93.5185 83.5437 93.5185H81.2615C81.0689 93.5185 80.8842 93.4426 80.748 93.3075C80.6118 93.1724 80.5353 92.9892 80.5353 92.7981V69.1129C80.5353 69.0183 80.5541 68.9247 80.5906 68.8373C80.6271 68.7499 80.6805 68.6705 80.748 68.6036C80.8154 68.5367 80.8955 68.4836 80.9836 68.4474C81.0717 68.4112 81.1661 68.3926 81.2615 68.3926H83.5437C83.6391 68.3926 83.7335 68.4112 83.8216 68.4474C83.9098 68.4836 83.9898 68.5367 84.0572 68.6036C84.1247 68.6705 84.1782 68.7499 84.2147 68.8373C84.2512 68.9247 84.27 69.0183 84.27 69.1129Z" fill="white"/>
<path d="M100.436 75.789C101.515 76.3414 102.36 77.0275 102.971 77.8473V75.3398C102.971 75.1493 103.047 74.9666 103.183 74.8319C103.319 74.6972 103.503 74.6216 103.695 74.6216H106.016C106.207 74.6219 106.391 74.6977 106.527 74.8323C106.662 74.967 106.739 75.1495 106.739 75.3398V93.4545C106.739 95.1007 106.389 96.5684 105.691 97.8575C104.998 99.14 103.945 100.196 102.66 100.896C101.338 101.633 99.7581 102.001 97.9215 102.001C95.475 102.001 93.4437 101.433 91.8274 100.295C90.4639 99.3368 89.5981 98.0893 89.23 96.5524C89.2043 96.4467 89.2032 96.3366 89.2266 96.2304C89.25 96.1242 89.2974 96.0247 89.3651 95.9392C89.4329 95.8538 89.5193 95.7847 89.6179 95.7372C89.7164 95.6896 89.8246 95.6649 89.9342 95.6648H92.2737C92.4158 95.6653 92.5547 95.707 92.6733 95.7846C92.7919 95.8623 92.8851 95.9726 92.9415 96.102C93.2677 96.8307 93.8187 97.4367 94.5945 97.9198C95.5224 98.4941 96.6307 98.7812 97.9193 98.7812C99.4268 98.7812 100.645 98.3261 101.572 97.4159C102.5 96.5057 102.965 95.1842 102.965 93.4512V90.4671C102.332 91.3102 101.476 92.0182 100.397 92.591C99.3173 93.1638 98.0886 93.4509 96.7104 93.4523C95.1903 93.4666 93.6969 93.0556 92.4015 92.2663C91.089 91.4612 90.024 90.3145 89.3225 88.951C88.5688 87.5321 88.1919 85.9235 88.1919 84.125C88.1919 82.3265 88.5688 80.7338 89.3225 79.3471C90.0256 78.0114 91.0873 76.8946 92.3904 76.1203C93.6934 75.3459 95.187 74.9441 96.706 74.9594C98.1128 74.9601 99.3563 75.2366 100.436 75.789ZM102.199 80.9736C101.732 80.1117 101.035 79.3934 100.185 78.8967C99.37 78.4243 98.4422 78.1774 97.4983 78.1818C96.5371 78.1734 95.5917 78.4244 94.7634 78.9081C93.9351 79.3918 93.255 80.0899 92.7961 80.9277C92.2818 81.8276 92.0247 82.8949 92.0247 84.1293C92.0247 85.3638 92.2818 86.4471 92.7961 87.3791C93.262 88.2613 93.9654 88.998 94.8282 89.5074C95.6353 89.9859 96.558 90.2386 97.4983 90.2386C98.4422 90.2431 99.37 89.9962 100.185 89.5238C101.039 89.023 101.736 88.2973 102.199 87.4272C102.714 86.5068 102.971 85.429 102.971 84.1938C102.971 82.9586 102.716 81.8852 102.205 80.9736H102.199Z" fill="white"/>
<path d="M160.068 75.838C161.194 76.4233 162.118 77.3283 162.722 78.4374C163.366 79.5866 163.688 80.9734 163.689 82.5977V92.8072C163.689 92.9975 163.612 93.1799 163.476 93.3143C163.341 93.4487 163.157 93.5243 162.965 93.5243H160.71C160.518 93.5243 160.334 93.4487 160.199 93.3143C160.063 93.1799 159.987 92.9975 159.986 92.8072V83.1562C159.986 81.553 159.582 80.3233 158.774 79.467C157.966 78.6108 156.864 78.183 155.468 78.1838C154.072 78.1838 152.964 78.6115 152.142 79.467C151.321 80.3226 150.911 81.5523 150.913 83.1562V92.8072C150.913 92.9975 150.837 93.1799 150.701 93.3143C150.565 93.4487 150.381 93.5243 150.189 93.5243H147.935C147.743 93.5243 147.559 93.4487 147.423 93.3143C147.287 93.1799 147.211 92.9975 147.211 92.8072V83.1562C147.211 81.553 146.807 80.3233 145.999 79.467C145.19 78.6108 144.088 78.183 142.693 78.1838C141.297 78.1838 140.188 78.6115 139.368 79.467C138.547 80.3226 138.138 81.5523 138.139 83.1562V92.8072C138.139 92.9975 138.062 93.1799 137.927 93.3143C137.791 93.4487 137.607 93.5243 137.415 93.5243H135.127C134.935 93.5243 134.752 93.4487 134.616 93.3143C134.48 93.1799 134.404 92.9975 134.403 92.8072V75.6117C134.403 75.4212 134.48 75.2386 134.615 75.1039C134.751 74.9692 134.935 74.8936 135.127 74.8936H137.415C137.607 74.8936 137.791 74.9692 137.927 75.1039C138.063 75.2386 138.139 75.4212 138.139 75.6117V77.3005C138.766 76.5518 139.563 75.9613 140.465 75.5778C141.415 75.1642 142.442 74.9538 143.479 74.9602C144.921 74.9602 146.209 75.2637 147.345 75.8708C148.468 76.4642 149.382 77.3821 149.967 78.5029C150.513 77.42 151.365 76.5587 152.522 75.9189C153.663 75.2845 154.95 74.9542 156.257 74.9602C157.673 74.9602 158.944 75.2528 160.068 75.838Z" fill="white"/>
</g>
<defs>
<clipPath id="clip0_529_2440">
<rect width="186" height="102" fill="white"/>
</clipPath>
</defs>
</svg>
