<svg xmlns="http://www.w3.org/2000/svg" xmlns:xlink="http://www.w3.org/1999/xlink" width="196px" height="50px" viewBox="0 0 196 50"><title>uh-logo</title><g id="Site-1.1" stroke="none" stroke-width="1" fill="none" fill-rule="evenodd"><g id="3.0-Work" transform="translate(-135.000000, -30.000000)" fill-rule="nonzero"><g id="uh-logo" transform="translate(135.157987, 30.224755)"><path d="M65.9610389,35.3996707 C67.320567,35.3996707 68.5101542,35.2129749 69.5298003,34.8395834 C70.5494465,34.4661918 71.3991516,33.9276463 72.0789157,33.2239469 C72.7586798,32.5202474 73.2685029,31.6609682 73.6083849,30.6461091 C73.948267,29.63125 74.122995,28.482353 74.1325692,27.1994179 L74.1325692,27.1994179 L74.2043753,14.1594363 L72.3948624,14.1594363 L72.3086951,27.4148361 C72.299121,28.5445849 72.1626894,29.5115733 71.8994005,30.3158012 C71.6361116,31.1200292 71.2459653,31.7758579 70.7289617,32.2832874 C70.211958,32.790717 69.5657034,33.1641085 68.7901979,33.4034621 C68.0146924,33.6428156 67.1195101,33.7624924 66.104651,33.7624924 C65.0131988,33.7624924 64.0701458,33.6140932 63.275492,33.3172948 C62.4808382,33.0204964 61.827403,32.5920535 61.3151864,32.0319662 C60.8029698,31.4718789 60.4247912,30.7921148 60.1806505,29.9926739 C59.9365099,29.193233 59.8144396,28.2860831 59.8144396,27.271224 L59.8144396,27.271224 L59.8575232,14.1594363 L58.0623716,14.1594363 L57.9762043,27.4291974 L57.9762043,27.8241307 C57.9762043,27.8576402 57.9809914,27.8983303 57.9905655,27.946201 C58.0767328,29.1238205 58.2969381,30.1721891 58.6511813,31.0913067 C59.0054246,32.0104244 59.5056735,32.790717 60.1519281,33.4321845 C60.7981827,34.073652 61.6000171,34.5619333 62.5574313,34.8970282 C63.5148455,35.2321232 64.6493814,35.3996707 65.9610389,35.3996707 Z M82.2638881,35.0693628 L82.2638881,13.4126532 L80.4830977,13.4126532 L80.4830977,35.0693628 L82.2638881,35.0693628 Z M93.4828679,35.3996707 C93.8466853,35.3996707 94.1698126,35.3685547 94.4522498,35.3063228 C94.734687,35.2440909 94.9812212,35.1411689 95.1918523,34.9975567 L95.1918523,34.9975567 L95.1918523,33.7768536 C94.8280349,33.9587623 94.3014571,34.0497167 93.6121188,34.0497167 C93.0376703,34.0497167 92.5948662,33.9826977 92.2837066,33.8486597 C91.972547,33.7146217 91.7547352,33.5111712 91.6302714,33.2383081 C91.5058075,32.9654451 91.4292144,32.6183824 91.400492,32.1971201 C91.3717696,31.7758579 91.3574083,31.2827896 91.3574083,30.7179152 L91.3574083,30.7179152 L91.3574083,21.5123775 L95.1487686,21.5123775 L95.1487686,20.334758 L91.3574083,20.334758 L91.3574083,15.7104474 L89.5909791,16.1987286 L89.5766179,20.334758 L86.6038468,20.334758 L86.6038468,21.5123775 L89.5766179,21.5123775 L89.5766179,31.1918352 C89.5766179,31.9003217 89.6292757,32.5178539 89.7345913,33.0444317 C89.8399068,33.5710095 90.0361767,34.0090265 90.323401,34.3584827 C90.6106253,34.7079389 91.0103457,34.9688343 91.5225623,35.1411689 C92.0347789,35.3135034 92.6882141,35.3996707 93.4828679,35.3996707 Z M101.384407,35.0693628 L101.384407,26.8260264 C101.393982,26.0217985 101.511265,25.2941637 101.736257,24.643122 C101.961249,23.9920803 102.262835,23.4367801 102.641014,22.9772212 C103.019192,22.5176624 103.47157,22.1658127 103.998148,21.9216721 C104.524726,21.6775315 105.103962,21.5554611 105.735855,21.5554611 C106.099672,21.5554611 106.394077,21.5722159 106.61907,21.6057254 C106.844062,21.6392349 106.999642,21.6751379 107.085809,21.7134345 L107.085809,21.7134345 L107.071448,20.0762562 C106.93741,20.0379596 106.767469,20.0116307 106.561625,19.9972695 C106.355781,19.9829083 106.114034,19.9757277 105.836384,19.9757277 C105.290657,19.9853018 104.783228,20.0642885 104.314095,20.2126877 C103.844962,20.3610869 103.4237,20.5932599 103.050308,20.9092065 C102.676917,21.2251532 102.344215,21.6296607 102.052204,22.1227291 C101.760193,22.6157974 101.537594,23.2070007 101.384407,23.8963389 L101.384407,23.8963389 L101.326963,20.334758 L99.4600049,20.334758 L99.603617,23.7527268 L99.603617,35.0693628 L101.384407,35.0693628 Z M116.725055,35.3996707 C117.471838,35.3996707 118.168357,35.2919616 118.814612,35.0765434 C119.460867,34.8611252 120.032922,34.5834751 120.530777,34.243593 C121.028632,33.903711 121.445107,33.5303194 121.780202,33.1234184 C122.115297,32.7165174 122.349864,32.3167969 122.483902,31.9242571 L122.483902,31.9242571 L122.455179,35.0693628 L124.264692,35.0693628 L124.264692,20.334758 L122.541347,20.334758 L122.469541,23.163917 C122.124872,22.6660616 121.763448,22.220864 121.385269,21.8283242 C121.00709,21.4357844 120.590615,21.1030829 120.135844,20.8302199 C119.681072,20.5573568 119.178429,20.3467257 118.627916,20.1983265 C118.077403,20.0499273 117.457477,19.9757277 116.768139,19.9757277 C115.59052,19.9757277 114.566086,20.1911459 113.694839,20.6219823 C112.823592,21.0528187 112.095958,21.6224801 111.511935,22.3309667 C110.927912,23.0394532 110.492289,23.8484682 110.205065,24.7580117 C109.91784,25.6675552 109.774228,26.596247 109.774228,27.5440871 C109.774228,28.4632047 109.908266,29.389503 110.176342,30.3229818 C110.444418,31.2564607 110.860893,32.0989852 111.425768,32.8505553 C111.990642,33.6021255 112.711096,34.2148706 113.58713,34.6887906 C114.463164,35.1627107 115.509139,35.3996707 116.725055,35.3996707 Z M117.026641,33.9922718 C115.887318,33.9922718 114.956233,33.7960019 114.233385,33.4034621 C113.510537,33.0109222 112.945663,32.5082798 112.538762,31.8955347 C112.131861,31.2827896 111.851817,30.6006319 111.698631,29.8490618 C111.545444,29.0974916 111.468851,28.3578891 111.468851,27.6302543 C111.468851,26.9026195 111.56938,26.1701977 111.770437,25.4329887 C111.971494,24.6957798 112.292228,24.0279834 112.732638,23.4295995 C113.173049,22.8312156 113.73553,22.3453279 114.420081,21.9719363 C115.104632,21.5985448 115.930402,21.411849 116.89739,21.411849 C117.931397,21.411849 118.795464,21.5841836 119.489589,21.9288527 C120.183714,22.2735218 120.746195,22.7330806 121.177032,23.3075292 C121.607868,23.8819777 121.926208,24.5354129 122.132052,25.2678348 C122.337896,26.0002566 122.469541,26.7542203 122.526986,27.5297258 L122.526986,27.5297258 L122.526986,27.8887562 C122.526986,28.9131894 122.383373,29.8083717 122.096149,30.574303 C121.808925,31.3402344 121.418779,31.9769149 120.92571,32.4843444 C120.432642,32.9917739 119.851013,33.3699526 119.180823,33.6188803 C118.510633,33.867808 117.792572,33.9922718 117.026641,33.9922718 Z M131.304559,35.0693628 L131.304559,26.6249694 C131.294985,25.8973346 131.39312,25.215177 131.598964,24.5784965 C131.804808,23.9418161 132.108787,23.3889094 132.510901,22.9197764 C132.913015,22.4506434 133.413264,22.082039 134.011648,21.813963 C134.610032,21.545887 135.306551,21.411849 136.101204,21.411849 C137.422436,21.411849 138.415753,21.7756664 139.081156,22.5033012 C139.746559,23.230936 140.11277,24.2745175 140.179789,25.6340457 C140.179789,25.6436198 140.184576,25.8614316 140.19415,26.2874809 C140.203724,26.7135302 140.208511,27.1036765 140.208511,27.4579198 L140.208511,27.4579198 L140.208511,35.0693628 L141.989302,35.0693628 L141.989302,25.8925475 L141.960579,25.2606542 C141.912709,24.6000383 141.795425,23.9537837 141.60873,23.3218904 C141.422034,22.689997 141.132416,22.1251226 140.739876,21.6272672 C140.347336,21.1294118 139.830333,20.7296914 139.188865,20.4281059 C138.547398,20.1265204 137.747957,19.9757277 136.790543,19.9757277 C135.53633,19.9757277 134.46642,20.2342295 133.580811,20.7512332 C132.695203,21.2682369 131.936452,22.0916131 131.304559,23.2213619 L131.304559,23.2213619 L131.304559,13.4126532 L129.523769,13.4126532 L129.523769,35.0693628 L131.304559,35.0693628 Z M153.538589,35.3996707 C154.285373,35.3996707 154.981891,35.2919616 155.628146,35.0765434 C156.274401,34.8611252 156.846456,34.5834751 157.344311,34.243593 C157.842166,33.903711 158.258641,33.5303194 158.593736,33.1234184 C158.928831,32.7165174 159.163398,32.3167969 159.297436,31.9242571 L159.297436,31.9242571 L159.268713,35.0693628 L161.078226,35.0693628 L161.078226,20.334758 L159.354881,20.334758 L159.283075,23.163917 C158.938406,22.6660616 158.576982,22.220864 158.198803,21.8283242 C157.820624,21.4357844 157.404149,21.1030829 156.949378,20.8302199 C156.494606,20.5573568 155.991963,20.3467257 155.44145,20.1983265 C154.890937,20.0499273 154.271011,19.9757277 153.581673,19.9757277 C152.404054,19.9757277 151.37962,20.1911459 150.508373,20.6219823 C149.637126,21.0528187 148.909492,21.6224801 148.325469,22.3309667 C147.741446,23.0394532 147.305823,23.8484682 147.018599,24.7580117 C146.731374,25.6675552 146.587762,26.596247 146.587762,27.5440871 C146.587762,28.4632047 146.7218,29.389503 146.989876,30.3229818 C147.257952,31.2564607 147.674427,32.0989852 148.239302,32.8505553 C148.804176,33.6021255 149.52463,34.2148706 150.400664,34.6887906 C151.276698,35.1627107 152.322673,35.3996707 153.538589,35.3996707 Z M153.840175,33.9922718 C152.700852,33.9922718 151.769767,33.7960019 151.046919,33.4034621 C150.324071,33.0109222 149.759197,32.5082798 149.352296,31.8955347 C148.945395,31.2827896 148.665351,30.6006319 148.512165,29.8490618 C148.358979,29.0974916 148.282385,28.3578891 148.282385,27.6302543 C148.282385,26.9026195 148.382914,26.1701977 148.583971,25.4329887 C148.785028,24.6957798 149.105762,24.0279834 149.546172,23.4295995 C149.986583,22.8312156 150.549064,22.3453279 151.233615,21.9719363 C151.918166,21.5985448 152.743936,21.411849 153.710924,21.411849 C154.744931,21.411849 155.608998,21.5841836 156.303123,21.9288527 C156.997248,22.2735218 157.559729,22.7330806 157.990566,23.3075292 C158.421402,23.8819777 158.739742,24.5354129 158.945586,25.2678348 C159.15143,26.0002566 159.283075,26.7542203 159.34052,27.5297258 L159.34052,27.5297258 L159.34052,27.8887562 C159.34052,28.9131894 159.196907,29.8083717 158.909683,30.574303 C158.622459,31.3402344 158.232313,31.9769149 157.739244,32.4843444 C157.246176,32.9917739 156.664547,33.3699526 155.994357,33.6188803 C155.324167,33.867808 154.606106,33.9922718 153.840175,33.9922718 Z M171.464256,35.3996707 C172.756765,35.3996707 173.853004,35.1411689 174.752974,34.6241652 C175.652943,34.1071615 176.371004,33.2837853 176.907156,32.1540365 L176.907156,32.1540365 L176.907156,35.0693628 L178.759752,35.0693628 C178.73103,34.0832262 178.711881,33.3077206 178.702307,32.7428462 C178.693691,32.2344593 178.688951,31.892806 178.68809,31.7178865 L178.687946,20.334758 L176.907156,20.334758 L176.907156,29.023292 C176.907156,29.7317785 176.799446,30.3876073 176.584028,30.9907782 C176.36861,31.5939492 176.05745,32.1181335 175.650549,32.5633311 C175.243648,33.0085287 174.741006,33.3579849 174.142622,33.6116996 C173.544238,33.8654144 172.857293,33.9922718 172.081788,33.9922718 C171.315857,33.9922718 170.669602,33.8893498 170.143024,33.6835057 C169.616446,33.4776617 169.188003,33.1760762 168.857696,32.7787493 C168.527388,32.3814224 168.300002,31.8883541 168.175538,31.2995443 C168.051074,30.7107346 167.974481,30.0285769 167.945759,29.2530714 L167.945759,29.2530714 L167.945759,20.334758 L166.164968,20.334758 L166.164968,29.3823224 C166.164968,30.0908089 166.241561,30.8016889 166.394748,31.5149625 C166.547934,32.2282361 166.82319,32.8720972 167.220517,33.4465457 C167.617844,34.0209942 168.158783,34.4901272 168.843334,34.8539446 C169.527886,35.217762 170.401526,35.3996707 171.464256,35.3996707 Z M188.901641,35.3996707 C189.648424,35.3996707 190.378452,35.3135034 191.091726,35.1411689 C191.804999,34.9688343 192.439286,34.7031519 192.994587,34.3441215 C193.549887,33.9850912 193.997478,33.5351065 194.33736,32.9941675 C194.677242,32.4532284 194.847183,31.8141545 194.847183,31.0769455 C194.847183,30.5790901 194.775377,30.1458602 194.631765,29.7772557 C194.488153,29.4086512 194.301457,29.090311 194.071678,28.822235 C193.841898,28.5541591 193.588183,28.3315602 193.310533,28.1544386 C193.032883,27.977317 192.764807,27.8265243 192.506305,27.7020604 C191.797819,27.3573913 191.137203,27.0869218 190.524458,26.8906519 C189.911713,26.6943819 189.351626,26.5316215 188.844196,26.4023706 C188.336766,26.2731197 187.886782,26.1534429 187.494242,26.0433403 C187.101702,25.9332376 186.771394,25.7896255 186.503318,25.6125039 C186.235242,25.4353822 186.031792,25.2079964 185.892967,24.9303462 C185.754142,24.6526961 185.684729,24.2745175 185.684729,23.7958104 C185.684729,23.4224189 185.770896,23.0897174 185.943231,22.7977061 C186.115566,22.5056947 186.357313,22.2567671 186.668472,22.050923 C186.979632,21.8450789 187.35063,21.6871056 187.781466,21.577003 C188.212303,21.4669003 188.681436,21.411849 189.188865,21.411849 C190.060112,21.411849 190.861946,21.4836551 191.594368,21.6272672 C192.32679,21.7708793 192.903632,21.9719363 193.324895,22.2304382 L193.324895,22.2304382 L193.74137,21.0959023 C193.224366,20.6937883 192.561357,20.4065641 191.752342,20.2342295 C190.943327,20.061895 190.060112,19.9757277 189.102698,19.9757277 C188.442082,19.9757277 187.798221,20.0547144 187.171115,20.2126877 C186.544008,20.370661 185.981528,20.6124081 185.483672,20.937929 C184.985817,21.2634498 184.586096,21.6703508 184.284511,22.1586321 C183.982925,22.6469133 183.832133,23.2213619 183.832133,23.8819777 C183.832133,24.5138711 183.939842,25.0476295 184.15526,25.483253 C184.370678,25.9188764 184.677051,26.2946615 185.074378,26.6106082 C185.471704,26.9265549 185.950412,27.1994179 186.510499,27.4291974 C187.070586,27.6589768 187.700086,27.879182 188.398998,28.0898132 C189.059614,28.2717219 189.667572,28.44645 190.222873,28.6139974 C190.778173,28.7815449 191.261667,28.9802084 191.673355,29.2099878 C192.085043,29.4397672 192.405777,29.7222044 192.635556,30.0572994 C192.865336,30.3923943 192.980225,30.8136566 192.980225,31.3210861 C192.980225,31.7614967 192.879697,32.1492494 192.67864,32.4843444 C192.477583,32.8194394 192.192752,33.0970895 191.824148,33.3172948 C191.455543,33.5375 191.017526,33.7050475 190.510097,33.8199372 C190.002667,33.9348269 189.447367,33.9922718 188.844196,33.9922718 C188.394211,33.9922718 187.94662,33.9635494 187.501423,33.9061045 C187.056225,33.8486597 186.634963,33.7600989 186.237636,33.6404221 C185.840309,33.5207453 185.474098,33.3699526 185.139003,33.1880439 C184.803908,33.0061352 184.526258,32.790717 184.306053,32.5417893 L184.306053,32.5417893 L183.860855,33.8917433 C184.109783,34.1693934 184.418549,34.4039599 184.787153,34.5954428 C185.155758,34.7869256 185.560265,34.9425054 186.000676,35.0621822 C186.441086,35.181859 186.907826,35.2680262 187.400894,35.320684 C187.893962,35.3733418 188.394211,35.3996707 188.901641,35.3996707 Z" id="Ultrahaus" fill="#FFFFFF"></path><path d="M20.9102729,0.199746935 L0.74546571,11.8419038 C0.284169923,12.108233 0,12.6004298 0,13.1330883 L0,36.417402 C0,36.9500605 0.284169923,37.4422572 0.74546571,37.7085865 L20.9102729,49.3507434 C21.3715687,49.6170726 21.9399085,49.6170726 22.4012043,49.3507434 L42.5660115,37.7085865 C43.0273073,37.4422572 43.3114772,36.9500605 43.3114772,36.417402 L43.3114772,13.1330883 C43.3114772,12.6004298 43.0273073,12.108233 42.5660115,11.8419038 L22.4012043,0.199746935 C21.9399085,-0.0665823117 21.3715687,-0.0665823117 20.9102729,0.199746935 Z M21.6557386,1.49093142 L41.8205458,13.1330883 L41.8205458,36.417402 L21.6557386,48.0595589 L1.49093142,36.417402 L1.49093142,13.1330883 L21.6557386,1.49093142 Z" id="Polygon-Copy" fill="#88DAFC"></path></g></g></g></svg>