<?xml version="1.0" encoding="UTF-8"?>
<svg width="152px" height="40px" viewBox="0 0 327 86" version="1.1" xmlns="http://www.w3.org/2000/svg" xmlns:xlink="http://www.w3.org/1999/xlink">
    <!-- Generator: Sketch 47.1 (45422) - http://www.bohemiancoding.com/sketch -->
    <title>logo</title>
    <desc>Created with Sketch.</desc>
    <defs></defs>
    <g id="Page-1" stroke="none" stroke-width="1" fill="none" fill-rule="evenodd">
        <g id="logo" fill-rule="nonzero">
            <path d="M135.798,34.042 C135.798,40.662 130.502,45.061 122.842,45.061 L116.174,45.061 L116.174,55.559 L111.683,55.559 L111.683,23.402 C114.994,23.214 118.917,23.024 122.842,23.024 C130.502,23.024 135.798,27.137 135.798,34.042 Z M123.315,40.993 C127.997,40.993 131.354,38.298 131.354,34.042 C131.354,29.597 127.997,27.186 123.315,27.186 C120.951,27.186 118.681,27.234 116.173,27.374 L116.173,40.993 L123.315,40.993 L123.315,40.993 Z M140.719,25.813 C140.719,24.064 142.042,22.788 143.698,22.788 C145.354,22.788 146.724,24.064 146.724,25.813 C146.724,27.469 145.353,28.746 143.698,28.746 C142.043,28.746 140.719,27.469 140.719,25.813 Z M145.874,55.557 L141.571,55.557 L141.571,33.474 L145.874,33.474 L145.874,55.557 Z M174.105,42.836 C174.105,44.35 174.058,44.775 173.869,46.147 L156.469,46.147 C157.13,49.882 159.92,52.389 164.272,52.389 C166.683,52.389 169.001,51.916 172.263,51.16 L172.924,54.659 C169.756,55.652 167.154,56.265 164.128,56.265 C156.185,56.265 151.834,51.205 151.834,44.445 C151.834,37.352 156.752,32.716 163.372,32.716 C169.613,32.717 174.058,36.69 174.105,42.836 Z M156.326,42.79 L170.18,42.79 C170.085,38.724 167.39,36.17 163.464,36.17 C159.447,36.169 156.798,38.817 156.326,42.79 Z M203.19,44.35 C203.19,51.538 198.224,56.362 190.99,56.362 C183.755,56.362 178.743,51.539 178.743,44.35 C178.743,37.256 183.755,32.528 190.99,32.528 C198.224,32.528 203.19,37.256 203.19,44.35 Z M198.792,44.35 C198.792,39.621 195.623,36.5 190.989,36.5 C186.355,36.5 183.139,39.621 183.139,44.35 C183.139,49.173 186.355,52.389 190.989,52.389 C195.623,52.389 198.792,49.173 198.792,44.35 Z M230.713,41.56 L230.713,55.557 L226.41,55.557 L226.41,42.743 C226.41,39.007 224.187,36.69 220.688,36.69 C218.512,36.69 216.101,36.879 213.5,37.256 L213.5,55.557 L209.197,55.557 L209.197,33.852 C212.034,33.286 217.472,32.764 221.587,32.764 C227.167,32.764 230.713,36.122 230.713,41.56 Z M258.616,42.836 C258.616,44.35 258.569,44.775 258.38,46.147 L240.98,46.147 C241.642,49.882 244.432,52.389 248.783,52.389 C251.194,52.389 253.512,51.916 256.774,51.16 L257.436,54.659 C254.268,55.652 251.665,56.265 248.64,56.265 C240.696,56.265 236.346,51.205 236.346,44.445 C236.346,37.352 241.264,32.716 247.883,32.716 C254.124,32.717 258.569,36.69 258.616,42.836 Z M240.836,42.79 L254.69,42.79 C254.596,38.724 251.9,36.17 247.975,36.17 C243.958,36.169 241.309,38.817 240.836,42.79 Z M285.524,42.836 C285.524,44.35 285.477,44.775 285.288,46.147 L267.888,46.147 C268.549,49.882 271.339,52.389 275.691,52.389 C278.102,52.389 280.42,51.916 283.682,51.16 L284.343,54.659 C281.175,55.652 278.573,56.265 275.547,56.265 C267.604,56.265 263.253,51.205 263.253,44.445 C263.253,37.352 268.171,32.716 274.791,32.716 C281.032,32.717 285.477,36.69 285.524,42.836 Z M267.745,42.79 L281.599,42.79 C281.504,38.724 278.809,36.17 274.883,36.17 C270.866,36.169 268.217,38.817 267.745,42.79 Z M304.489,37.116 C301.463,37.116 298.861,37.163 295.835,37.494 L295.835,55.556 L291.532,55.556 L291.532,34.088 C295.457,33.379 300.327,32.812 304.489,32.812 L304.489,37.116 Z M308.509,50.592 C311.914,52.01 315.178,52.672 317.684,52.672 C320.663,52.672 322.837,51.632 322.837,49.6 C322.837,47.188 319.527,46.762 315.744,45.957 C310.826,44.965 308.32,43.355 308.32,39.668 C308.32,35.318 311.772,32.812 317.399,32.812 C320.52,32.812 324.019,33.569 326.194,34.373 L325.154,37.778 C322.317,36.88 319.291,36.311 317.163,36.311 C314.231,36.311 312.576,37.399 312.576,39.385 C312.576,41.512 314.799,41.891 318.439,42.695 C323.688,43.783 326.856,44.966 326.856,49.221 C326.856,53.996 322.979,56.266 317.446,56.266 C314.561,56.266 310.921,55.604 307.563,54.186 L308.509,50.592 Z" id="Shape" fill="#CF202C"></path>
            <path d="M12.61,71.975 C-3.637,55.032 -3.073,28.129 13.869,11.883 C30.81,-4.364 57.713,-3.799 73.959,13.143 C90.543,30.434 90.008,56.637 72.701,73.232 C55.759,89.479 28.856,88.915 12.61,71.975" id="Shape" fill="#CF202C"></path>
            <path d="M67.89,42.519 L46.917,19.671 C46.355,19.06 45.405,19.02 44.797,19.58 C44.188,20.14 44.147,21.089 44.706,21.699 L63.813,42.513 L21.475,37.87 L36.874,21.391 C37.44,20.786 37.408,19.836 36.804,19.271 C36.199,18.705 35.248,18.737 34.684,19.342 L17.679,37.538 C17.418,37.816 17.275,38.182 17.275,38.562 L17.275,58.85 C17.275,59.62 17.857,60.264 18.622,60.341 L66.632,65.272 C66.685,65.278 66.736,65.281 66.785,65.281 C67.154,65.281 67.514,65.143 67.79,64.893 C68.105,64.61 68.285,64.205 68.285,63.781 L68.285,43.533 C68.285,43.157 68.144,42.795 67.89,42.519 Z M20.275,57.496 L20.275,40.756 L65.285,45.694 L65.285,62.119 L20.275,57.496 Z M35.412,13.309 C37.61,13.309 39.398,15.098 39.398,17.296 L39.398,24.481 C36.588,25.059 34.423,27.539 34.356,30.502 C34.275,33.969 37.032,36.858 40.502,36.94 L40.646,36.942 L40.646,36.942 C44.038,36.942 46.86,34.184 46.939,30.792 C46.977,29.111 46.359,27.516 45.199,26.3 C44.297,25.355 43.151,24.733 41.897,24.482 L41.897,17.295 C41.897,13.718 38.987,10.808 35.411,10.808 C34.722,10.808 34.161,11.368 34.161,12.058 C34.161,12.748 34.721,13.309 35.412,13.309 Z M44.44,30.736 C44.393,32.78 42.69,34.443 40.646,34.443 L40.56,34.442 C38.467,34.392 36.806,32.65 36.854,30.56 C36.901,28.517 38.601,26.855 40.734,26.855 C40.735,26.855 40.735,26.855 40.736,26.855 C41.748,26.878 42.691,27.294 43.39,28.027 C44.089,28.76 44.463,29.722 44.44,30.736 Z" id="Shape" fill="#FFFFFF"></path>
        </g>
    </g>
</svg>
