<?xml version="1.0" standalone="no"?>
<!DOCTYPE svg PUBLIC "-//W3C//DTD SVG 20010904//EN"
 "http://www.w3.org/TR/2001/REC-SVG-20010904/DTD/svg10.dtd">
<svg version="1.0" xmlns="http://www.w3.org/2000/svg"
 width="369.000000pt" height="137.000000pt" viewBox="0 0 369.000000 137.000000"
 preserveAspectRatio="xMidYMid meet">

<g transform="translate(0.000000,137.000000) scale(0.100000,-0.100000)"
fill="#000000" stroke="none">
<path d="M90 625 l0 -565 515 0 515 0 0 256 0 257 223 -6 c438 -11 828 -111
917 -237 46 -65 19 -145 -78 -233 l-42 -37 729 0 730 0 -15 53 c-77 264 -257
418 -563 480 -70 14 -89 33 -44 42 62 14 182 59 257 98 151 78 237 158 296
277 25 50 60 146 60 167 0 11 -124 13 -721 13 l-722 0 41 -44 c74 -80 90 -141
53 -202 -81 -133 -614 -284 -1002 -284 l-119 0 0 265 0 265 -515 0 -515 0 0
-565z"/>
</g>
</svg>
